<!DOCTYPE svg PUBLIC "-//W3C//DTD SVG 20010904//EN" "http://www.w3.org/TR/2001/REC-SVG-20010904/DTD/svg10.dtd">
<svg version="1.0" xmlns="http://www.w3.org/2000/svg" width="512px" height="512px" viewBox="0 0 5120 5120" preserveAspectRatio="xMidYMid meet">
<g id="layer101" fill="#ffffff" stroke="none">
 <path d="M1020 4425 l0 -235 -410 0 -410 0 0 -485 0 -485 410 0 410 0 0 -455 0 -455 -410 0 -410 0 0 -485 0 -485 410 0 410 0 0 -394 0 -393 88 -16 c121 -22 369 -54 542 -69 196 -17 932 -17 1060 0 358 48 586 110 804 219 276 138 460 328 562 580 l29 73 408 0 407 0 0 485 0 485 -413 0 -413 0 -23 55 c-85 204 -289 405 -547 537 l-121 62 96 128 96 128 663 0 662 0 0 485 0 485 -360 0 c-198 0 -360 2 -360 5 0 3 52 109 115 235 l115 230 -532 0 -533 0 -169 -303 c-260 -465 -526 -885 -703 -1112 l-78 -100 -228 -3 -227 -2 0 760 0 760 -470 0 -470 0 0 -235z m1325 -2035 c110 -5 234 -14 275 -20 390 -60 557 -209 576 -515 15 -228 -80 -401 -268 -490 -87 -42 -228 -79 -356 -94 -102 -13 -401 -15 -529 -5 l-83 7 0 563 0 564 93 0 c50 0 182 -5 292 -10z"/>
 </g>

</svg>